<?xml version="1.0" standalone="no"?>
<!DOCTYPE svg PUBLIC "-//W3C//DTD SVG 20010904//EN"
 "http://www.w3.org/TR/2001/REC-SVG-20010904/DTD/svg10.dtd">
<svg version="1.0" xmlns="http://www.w3.org/2000/svg"
 width="1000.000000pt" height="1000.000000pt" viewBox="0 0 1000.000000 1000.000000"
 preserveAspectRatio="xMidYMid meet">
<metadata>
Created by potrace 1.14, written by Peter Selinger 2001-2017
</metadata>
<g transform="translate(0.000000,1000.000000) scale(0.100000,-0.100000)"
fill="#000000" stroke="none">
<path d="M4350 9945 c-14 -8 -20 -15 -15 -15 23 -3 48 -9 63 -16 23 -9 38 -13
92 -20 52 -7 100 -23 100 -34 0 -4 -12 -5 -27 -3 -163 26 -257 28 -368 7 -44
-8 -120 -21 -170 -29 -49 -7 -99 -16 -110 -19 -11 -3 -72 -15 -135 -26 -184
-33 -219 -41 -248 -56 -15 -8 -33 -14 -40 -14 -8 0 -28 -6 -45 -14 -18 -8 -75
-28 -127 -46 -52 -17 -104 -35 -115 -40 -11 -5 -31 -12 -45 -15 -14 -4 -68
-27 -120 -52 -52 -25 -129 -61 -170 -80 -129 -59 -143 -67 -205 -113 -33 -25
-65 -49 -72 -55 -7 -5 -43 -32 -80 -60 -138 -101 -303 -302 -303 -369 0 -29
-6 -35 -81 -85 -36 -24 -72 -53 -80 -66 -19 -30 -221 -302 -252 -340 -76 -93
-90 -125 -133 -315 -8 -35 -19 -69 -23 -75 -5 -5 -14 -39 -21 -75 -6 -36 -15
-69 -20 -75 -4 -5 -10 -23 -14 -40 -4 -16 -13 -43 -21 -60 -7 -16 -19 -93 -25
-170 -6 -77 -14 -158 -18 -180 -9 -62 -8 -288 2 -310 5 -11 11 -31 13 -45 5
-35 21 -120 28 -150 3 -14 10 -52 16 -85 5 -33 15 -78 21 -100 15 -50 89 -193
134 -256 18 -26 45 -70 59 -97 14 -27 35 -58 45 -67 11 -10 20 -30 20 -45 0
-15 5 -40 10 -56 6 -16 17 -65 25 -109 8 -44 23 -118 34 -165 11 -47 26 -110
32 -140 19 -89 38 -157 82 -290 46 -141 54 -236 28 -344 -14 -54 -18 -60 -56
-77 -39 -17 -115 -88 -115 -107 0 -5 -6 -15 -14 -21 -8 -7 -26 -37 -41 -67
-27 -55 -65 -84 -110 -84 -9 0 -40 -11 -70 -25 l-53 -26 -54 21 c-62 23 -77
24 -130 8 -91 -27 -143 -150 -148 -353 -8 -269 -3 -548 8 -541 4 2 8 -10 8
-27 1 -18 5 -53 9 -78 7 -42 5 -47 -19 -62 -56 -37 -96 -85 -96 -114 0 -27
-69 -215 -99 -272 -13 -23 -7 -95 20 -271 5 -30 13 -215 19 -410 5 -195 12
-391 14 -435 3 -44 8 -123 11 -175 4 -52 12 -129 20 -170 7 -41 16 -108 19
-149 l6 -74 97 -116 c53 -64 122 -142 152 -175 31 -32 70 -73 87 -91 32 -34
70 -50 204 -85 47 -12 114 -30 150 -40 39 -12 118 -22 200 -26 117 -6 143 -10
205 -36 38 -16 84 -34 102 -39 18 -5 35 -14 38 -19 4 -6 14 -10 24 -10 26 0
100 -41 191 -107 184 -134 278 -200 393 -278 67 -45 150 -101 185 -125 65 -45
119 -107 129 -150 3 -14 13 -38 21 -55 19 -38 38 -122 47 -207 l7 -68 1870 0
1870 0 -4 118 c-3 87 -9 126 -22 152 -24 47 -30 133 -18 260 14 143 25 167
142 300 42 47 98 112 125 145 27 33 52 62 55 65 3 3 39 43 80 90 41 47 78 87
81 90 3 3 84 111 181 240 132 177 205 264 296 355 137 134 126 126 210 155
147 51 318 176 447 326 34 41 66 87 69 102 4 15 13 41 21 57 51 107 79 186 82
235 2 30 6 89 9 131 5 63 2 90 -16 150 -12 41 -25 79 -29 84 -3 6 -6 15 -6 20
-2 27 -36 131 -76 230 -4 11 -13 38 -20 60 -6 22 -15 45 -19 50 -4 6 -10 24
-14 40 -4 17 -18 53 -30 80 -86 186 -94 207 -151 395 -36 119 -46 151 -58 180
-6 14 -11 30 -11 35 -3 15 -36 126 -47 156 -6 15 -40 51 -76 80 -36 29 -76 70
-90 90 -18 28 -39 42 -83 59 -33 12 -64 27 -69 34 -5 6 -12 38 -16 70 -3 33
-8 63 -11 68 -3 4 -11 40 -19 80 -25 133 -67 287 -96 353 -11 27 -44 129 -58
182 -14 52 -74 156 -114 200 -46 50 -84 64 -137 52 -25 -6 -56 -17 -69 -26
-18 -12 -29 -13 -48 -4 -13 6 -60 11 -103 11 -69 0 -87 -4 -129 -27 l-49 -28
-65 63 c-69 68 -132 111 -186 127 -26 8 -40 21 -55 51 -19 36 -99 151 -116
164 -3 3 -8 214 -10 470 -2 256 -4 500 -4 542 -1 43 -5 78 -9 78 -5 0 -6 4 -3
9 3 4 -1 39 -9 77 -20 92 -19 103 8 113 46 18 75 56 87 117 6 32 18 77 25 99
8 22 17 58 20 80 4 22 12 56 18 75 6 19 9 53 8 75 -3 73 -32 229 -42 236 -6 3
-10 10 -10 15 1 17 -19 82 -34 111 -8 15 -15 33 -15 38 0 26 -131 198 -216
285 -51 52 -118 121 -148 154 -54 58 -55 59 -35 75 23 18 26 38 36 218 l6 122
-61 39 c-33 21 -75 45 -94 51 -118 45 -128 53 -160 121 -54 119 -73 151 -93
162 -11 6 -39 25 -61 42 -23 17 -52 38 -64 46 -12 8 -47 33 -78 56 -190 135
-298 204 -324 204 -15 0 -56 -12 -91 -26 l-64 -26 -99 80 c-61 49 -132 95
-184 120 -207 98 -237 111 -275 117 -22 4 -58 13 -80 21 -22 7 -58 16 -79 19
-22 3 -45 10 -53 16 -7 6 -13 8 -13 5 0 -4 -8 -2 -18 3 -10 5 -74 12 -142 15
-97 4 -131 2 -150 -9z m2668 -5779 c60 -31 173 -75 210 -82 l28 -6 0 -101 c-1
-115 9 -151 114 -421 16 -43 30 -82 30 -87 0 -5 18 -50 39 -101 133 -315 134
-318 94 -318 -20 0 -172 -36 -218 -51 -16 -6 -50 -17 -75 -24 -25 -8 -76 -26
-115 -40 -69 -26 -150 -56 -210 -77 -17 -6 -57 -42 -90 -81 -33 -38 -67 -78
-76 -87 -23 -25 -111 -42 -145 -30 -14 6 -61 13 -103 15 -42 3 -84 8 -93 11
-12 3 -23 33 -39 102 -15 65 -40 132 -76 205 -29 59 -63 134 -74 165 -37 103
-73 186 -100 234 l-28 47 137 133 c156 153 161 159 243 287 56 86 108 196 124
262 5 18 16 29 41 37 19 5 36 7 39 2 7 -12 114 -11 137 1 22 12 90 26 131 28
15 1 49 -10 75 -23z m-4204 -567 c51 -74 154 -184 255 -272 68 -59 414 -252
432 -241 5 3 9 1 9 -4 0 -4 24 -18 54 -31 61 -25 72 -42 52 -74 -14 -21 -36
-83 -69 -197 -9 -30 -19 -91 -23 -135 -3 -44 -7 -82 -10 -84 -2 -3 -35 -14
-74 -27 -38 -12 -86 -35 -107 -52 -28 -22 -59 -34 -117 -45 -88 -16 -115 -12
-203 30 l-53 24 -92 -15 c-51 -9 -104 -19 -118 -21 -14 -3 -65 -8 -115 -11
-49 -3 -118 -12 -153 -21 -43 -10 -67 -12 -73 -6 -22 22 -29 96 -29 314 0 124
-4 282 -10 350 -5 68 -12 158 -14 199 -2 41 -11 95 -20 120 -9 25 -16 52 -16
61 0 16 37 56 49 52 3 -1 32 13 64 30 37 21 60 40 64 55 7 31 32 42 95 42 29
1 76 9 103 19 28 11 54 18 59 17 6 -1 33 -36 60 -77z"/>
</g>
</svg>
